HIERARCHY
ROOT Pelvis
{
	OFFSET 0.000000 0.000000 0.000000
	CHANNELS 6 Xposition Yposition Zposition Xrotation Yrotation Zrotation
	JOINT LeftUpLeg_virtual
	{
		OFFSET 0.000000 0.000000 0.000000
		CHANNELS 3 Xrotation Yrotation Zrotation
		JOINT LeftUpLeg
		{
			OFFSET 18.735201 -5.666702 -4.541200
			CHANNELS 3 Xrotation Yrotation Zrotation
			JOINT LeftLeg
			{
				OFFSET -0.021200 -31.938179 0.493100
				CHANNELS 3 Xrotation Yrotation Zrotation
				JOINT LeftFoot
				{
					OFFSET 0.021200 -31.938179 -4.336299
					CHANNELS 3 Xrotation Yrotation Zrotation
					JOINT LeftToeBase
					{
						OFFSET 0.943001 -26.722000 15.023500
						CHANNELS 3 Xrotation Yrotation Zrotation
						End Site
						{
							OFFSET 0 0 0
						}
					}
				}
			}
		}
	}
	JOINT RightUpLeg_virtual
	{
		OFFSET 0.000000 0.000000 0.000000
		CHANNELS 3 Xrotation Yrotation Zrotation
		JOINT RightUpLeg
		{
			OFFSET -18.735201 -5.666702 -4.541200
			CHANNELS 3 Xrotation Yrotation Zrotation
			JOINT RightLeg
			{
				OFFSET 0.018946 -31.938133 0.493100
				CHANNELS 3 Xrotation Yrotation Zrotation
				JOINT RightFoot
				{
					OFFSET -0.018946 -31.938126 -4.336299
					CHANNELS 3 Xrotation Yrotation Zrotation
					JOINT RightToeBase
					{
						OFFSET -0.943001 -26.722004 15.023500
						CHANNELS 3 Xrotation Yrotation Zrotation
						End Site
						{
							OFFSET 0 0 0
						}
					}
				}
			}
		}
	}
	JOINT Hips_virtual
	{
		OFFSET 0.000000 0.000000 0.000000
		CHANNELS 3 Xrotation Yrotation Zrotation
		JOINT Hips
		{
			OFFSET -0.000000 -0.000000 -0.000000
			CHANNELS 3 Xrotation Yrotation Zrotation
			JOINT Spine
			{
				OFFSET 0.000000 10.199997 -0.299500
				CHANNELS 3 Xrotation Yrotation Zrotation
				JOINT Spine1
				{
					OFFSET 0.000000 11.900002 -1.516600
					CHANNELS 3 Xrotation Yrotation Zrotation
					JOINT Spine2
					{
						OFFSET 0.000000 13.600006 -2.842500
						CHANNELS 3 Xrotation Yrotation Zrotation
						JOINT Neck_virtual
						{
							OFFSET 0.000000 0.000000 0.000000
							CHANNELS 3 Xrotation Yrotation Zrotation
							JOINT Neck
							{
								OFFSET 0.000000 9.624100 -2.890100
								CHANNELS 3 Xrotation Yrotation Zrotation
								JOINT Head
								{
									OFFSET 0.000000 14.068802 -1.351900
									CHANNELS 3 Xrotation Yrotation Zrotation
									End Site
									{
										OFFSET 0 0 0
									}
								}
							}
						}
						JOINT LeftShoulder_virtual
						{
							OFFSET 0.000000 0.000000 0.000000
							CHANNELS 3 Xrotation Yrotation Zrotation
							JOINT LeftShoulder
							{
								OFFSET 15.263000 10.923401 -0.547700
								CHANNELS 3 Xrotation Yrotation Zrotation
								JOINT LeftArm
								{
									OFFSET 25.438599 -2.830597 -13.032500
									CHANNELS 3 Xrotation Yrotation Zrotation
									JOINT LeftForeArm
									{
										OFFSET 29.960503 0.000000 0.000000
										CHANNELS 3 Xrotation Yrotation Zrotation
										JOINT LeftHand
										{
											OFFSET 27.849251 0.000000 0.000000
											CHANNELS 3 Xrotation Yrotation Zrotation
											End Site
											{
												OFFSET 0 0 0
											}
										}
									}
								}
							}
						}
						JOINT RightShoulder_virtual
						{
							OFFSET 0.000000 0.000000 0.000000
							CHANNELS 3 Xrotation Yrotation Zrotation
							JOINT RightShoulder
							{
								OFFSET -15.263000 10.923401 -0.547700
								CHANNELS 3 Xrotation Yrotation Zrotation
								JOINT RightArm
								{
									OFFSET -25.438599 -2.830597 -13.032500
									CHANNELS 3 Xrotation Yrotation Zrotation
									JOINT RightForeArm
									{
										OFFSET -29.960503 0.000000 0.000000
										CHANNELS 3 Xrotation Yrotation Zrotation
										JOINT RightHand
										{
											OFFSET -27.849251 0.000000 0.000000
											CHANNELS 3 Xrotation Yrotation Zrotation
											End Site
											{
												OFFSET 0 0 0
											}
										}
									}
								}
							}
						}
					}
				}
			}
		}
	}
}
MOTION
Frames: 5
Frame Time: 0.03333333
12.806329 84.126671 4.505692 0.000000 0.000000 0.000000 7.321576 -22.780137 4.755025 -37.972491 4.250157 21.218500 53.030569 -2.500657 -4.277260 1.842364 -0.985731 -14.365474 0.000000 0.000000 0.000000 -0.748536 -21.334583 5.468384 -35.641443 -10.686127 -12.046527 41.065532 -5.716323 -1.209046 -11.947116 -8.134585 4.954273 0.000000 0.000000 0.000000 2.911887 -2.947456 -0.280284 8.496012 5.475160 -9.140949 9.446755 -5.760038 -8.564859 5.670989 -2.704845 -5.750511 0.000000 0.000000 0.000000 3.758591 -3.320063 -6.324281 -1.522435 -0.411781 -2.257171 0.000000 0.000000 0.000000 5.999184 -2.152286 -3.279592 0.909896 -6.317195 -12.397429 -28.264272 -1.412608 -34.016323 -8.072401 -48.257896 1.062138 0.000000 0.000000 0.000000 5.804600 -1.206239 -3.743859 0.870796 -8.552536 -4.472317 10.384303 -8.009629 52.543320 -25.442212 81.198525 33.781518 0.000000 0.000000 0.000000 
12.781878 83.904190 3.953550 0.000000 0.000000 0.000000 7.005685 -23.433353 4.788188 -38.466113 4.001357 21.245042 53.388802 -2.224248 -4.206112 2.144600 -0.753776 -14.035456 0.000000 0.000000 0.000000 -0.908512 -20.630535 5.524982 -35.785625 -10.502089 -11.912135 41.758267 -5.975213 -1.078238 -11.471040 -8.409297 4.987049 0.000000 0.000000 0.000000 2.988182 -3.110514 -0.261874 8.490700 4.698346 -9.050671 9.642097 -5.616148 -8.275260 5.724463 -2.633592 -5.573835 0.000000 0.000000 0.000000 3.941989 -3.240323 -6.193152 -1.426057 -0.425289 -2.216917 0.000000 0.000000 0.000000 6.044586 -2.086163 -3.255103 0.972606 -6.324252 -12.584047 -27.703715 -0.204536 -34.495645 -8.107883 -47.228979 0.873010 0.000000 0.000000 0.000000 5.983578 -1.112580 -3.608416 1.103471 -8.163418 -3.869223 10.294023 -7.068482 52.937374 -22.477861 80.594347 30.952143 0.000000 0.000000 0.000000 
12.736327 83.722443 3.436942 0.000000 0.000000 0.000000 6.698729 -24.020471 4.799798 -38.913589 3.776068 21.249907 53.681319 -1.925492 -4.128130 2.395948 -0.497841 -13.676026 0.000000 0.000000 0.000000 -1.071435 -19.941828 5.570344 -35.927782 -10.319143 -11.788285 42.380856 -6.211692 -0.979863 -11.029343 -8.650455 4.979288 0.000000 0.000000 0.000000 3.061229 -3.296068 -0.235489 8.495443 3.951612 -8.944532 9.808590 -5.471334 -7.997655 5.762408 -2.563157 -5.403248 0.000000 0.000000 0.000000 4.114130 -3.153181 -6.062957 -1.333034 -0.434288 -2.176580 0.000000 0.000000 0.000000 6.072950 -2.019214 -3.239798 1.036976 -6.321640 -12.793217 -27.087253 0.971835 -35.022502 -8.119264 -46.198559 0.681027 0.000000 0.000000 0.000000 6.142934 -1.021581 -3.472015 1.333169 -7.757503 -3.260831 10.104572 -6.215564 53.203735 -19.552475 79.836524 28.098015 0.000000 0.000000 0.000000 
12.666558 83.584808 2.960494 0.000000 0.000000 0.000000 6.404431 -24.532875 4.787253 -39.310102 3.578656 21.231100 53.910369 -1.613071 -4.044020 2.597831 -0.226851 -13.295472 0.000000 0.000000 0.000000 -1.223326 -19.281154 5.611405 -36.051917 -10.144278 -11.670165 42.920875 -6.430478 -0.914735 -10.630677 -8.863140 4.927461 0.000000 0.000000 0.000000 3.126600 -3.503647 -0.202902 8.502470 3.245861 -8.829959 9.940912 -5.329083 -7.738431 5.782349 -2.495166 -5.242311 0.000000 0.000000 0.000000 4.269922 -3.061100 -5.936193 -1.245624 -0.439547 -2.137271 0.000000 0.000000 0.000000 6.082202 -1.953147 -3.233429 1.101453 -6.311321 -13.022067 -26.424118 2.096133 -35.589097 -8.106606 -45.182917 0.488453 0.000000 0.000000 0.000000 6.277842 -0.935585 -3.336678 1.554390 -7.342866 -2.657043 9.812399 -5.456563 53.356123 -16.874281 78.949296 25.429028 0.000000 0.000000 0.000000 
12.570889 83.493721 2.525964 0.000000 0.000000 0.000000 6.126109 -24.964439 4.748851 -39.651926 3.412487 21.187223 54.078026 -1.295471 -3.955264 2.751174 0.050875 -12.903127 0.000000 0.000000 0.000000 -1.352564 -18.659727 5.653970 -36.144763 -9.983517 -11.553537 43.368296 -6.636356 -0.883336 -10.282442 -9.052442 4.828308 0.000000 0.000000 0.000000 3.180112 -3.731725 -0.165799 8.502490 2.591752 -8.713398 10.035050 -5.192245 -7.503019 5.782406 -2.430876 -5.094053 0.000000 0.000000 0.000000 4.405015 -2.966617 -5.815229 -1.165862 -0.442002 -2.100050 0.000000 0.000000 0.000000 6.070460 -1.889576 -3.235579 1.164352 -6.295882 -13.266887 -25.726336 3.148723 -36.186554 -8.071338 -44.199073 0.296794 0.000000 0.000000 0.000000 6.384536 -0.856351 -3.204486 1.762691 -6.926034 -2.067706 9.427194 -4.778157 53.411929 -14.552698 77.974833 23.062861 0.000000 0.000000 0.000000 
